<svg width="528" height="510" viewBox="0 0 528 510" fill="none" xmlns="http://www.w3.org/2000/svg">
<path d="M371.03 112.41C421.791 142.675 492.834 166.81 527.5 166.81C527.5 211.5 527.5 224 527.5 274C527.5 324 527.5 474 527.5 509.553C497.076 509.553 353.918 509.553 301.016 509.553C248.113 509.553 211.462 509.553 158.987 509.553C106.512 509.553 53.9247 489.76 25.2981 447.236C-3.32843 404.585 -6.42718 350.568 9.80438 307.151C25.8884 263.861 61.4503 231.042 79.0099 188.519C96.717 145.995 96.5695 93.894 123.868 54.4351C151.167 14.9763 205.911 -11.7127 248.113 5.14351C290.463 21.9997 320.27 82.2734 371.03 112.41Z" fill="#FE840E"/>
</svg>
